<svg xmlns="http://www.w3.org/2000/svg" width="375" viewBox="0 0 375 375" height="375" version="1.0"><g fill="#FF1616" fill-opacity=".4"><g><g><path d="M 66.730469 1.660156 L 69.71875 1.660156 C 98.269531 1.492188 114.539062 -17.097656 115.699219 -35.523438 C 117.027344 -54.777344 102.421875 -76.359375 67.230469 -80.839844 L 66.898438 -80.839844 C 54.113281 -82.335938 40.835938 -88.644531 41.5 -97.9375 C 41.996094 -104.578125 51.957031 -110.71875 70.050781 -109.890625 L 70.550781 -109.890625 C 80.507812 -109.890625 92.460938 -105.078125 98.601562 -100.59375 L 112.878906 -120.515625 C 103.417969 -127.320312 86.816406 -134.292969 70.882812 -134.292969 C 35.691406 -136.117188 18.589844 -118.191406 17.097656 -99.929688 C 16.269531 -89.308594 20.75 -78.847656 29.382812 -70.882812 C 37.847656 -63.078125 49.964844 -58.097656 64.242188 -56.605469 C 83.664062 -53.949219 91.796875 -44.984375 91.296875 -37.183594 C 90.800781 -30.046875 83.164062 -22.90625 69.386719 -22.90625 L 68.558594 -22.90625 C 68.390625 -22.90625 50.296875 -21.910156 39.175781 -31.042969 C 36.351562 -33.199219 34.03125 -35.855469 31.871094 -39.007812 L 11.621094 -25.230469 C 14.941406 -20.25 19.089844 -15.769531 23.738281 -11.953125 C 38.84375 0.332031 58.761719 1.660156 66.730469 1.660156 Z M 66.730469 1.660156" transform="translate(3.934 186.586)"/></g></g></g><g fill="#FF1616" fill-opacity=".4"><g><g><path d="M 68.890625 -132.796875 L 11.621094 -132.796875 L 11.621094 0 L 36.519531 0 L 36.519531 -33.035156 L 68.890625 -33.035156 C 103.914062 -33.035156 115.367188 -55.441406 115.367188 -83 C 115.367188 -110.554688 102.753906 -132.796875 68.890625 -132.796875 Z M 85.820312 -63.246094 C 83 -59.59375 77.355469 -57.933594 68.890625 -57.933594 L 36.519531 -57.933594 L 36.519531 -108.0625 L 68.890625 -108.0625 C 81.171875 -108.0625 84.492188 -103.914062 85.65625 -102.585938 C 88.808594 -98.601562 90.46875 -91.628906 90.46875 -83 C 90.46875 -73.867188 88.808594 -66.898438 85.820312 -63.246094 Z M 85.820312 -63.246094" transform="translate(131.253 186.586)"/></g></g></g><g fill="#FF1616" fill-opacity=".4"><g><g><path d="M 89.96875 0 L 115.867188 0 L 76.855469 -132.464844 L 76.855469 -132.796875 L 50.796875 -132.796875 L 11.621094 0 L 37.679688 0 L 47.476562 -33.035156 L 80.175781 -33.035156 Z M 54.777344 -57.765625 L 63.910156 -88.644531 L 72.871094 -57.765625 Z M 54.777344 -57.765625" transform="translate(258.24 186.586)"/></g></g></g><g fill="#FFDE59"><g><g><path d="M 66.730469 1.660156 L 69.71875 1.660156 C 98.269531 1.492188 114.539062 -17.097656 115.699219 -35.523438 C 117.027344 -54.777344 102.421875 -76.359375 67.230469 -80.839844 L 66.898438 -80.839844 C 54.113281 -82.335938 40.835938 -88.644531 41.5 -97.9375 C 41.996094 -104.578125 51.957031 -110.71875 70.050781 -109.890625 L 70.550781 -109.890625 C 80.507812 -109.890625 92.460938 -105.078125 98.601562 -100.59375 L 112.878906 -120.515625 C 103.417969 -127.320312 86.816406 -134.292969 70.882812 -134.292969 C 35.691406 -136.117188 18.589844 -118.191406 17.097656 -99.929688 C 16.269531 -89.308594 20.75 -78.847656 29.382812 -70.882812 C 37.847656 -63.078125 49.964844 -58.097656 64.242188 -56.605469 C 83.664062 -53.949219 91.796875 -44.984375 91.296875 -37.183594 C 90.800781 -30.046875 83.164062 -22.90625 69.386719 -22.90625 L 68.558594 -22.90625 C 68.390625 -22.90625 50.296875 -21.910156 39.175781 -31.042969 C 36.351562 -33.199219 34.03125 -35.855469 31.871094 -39.007812 L 11.621094 -25.230469 C 14.941406 -20.25 19.089844 -15.769531 23.738281 -11.953125 C 38.84375 0.332031 58.761719 1.660156 66.730469 1.660156 Z M 66.730469 1.660156" transform="translate(-3.402 179.25)"/></g></g></g><g fill="#FFDE59"><g><g><path d="M 68.890625 -132.796875 L 11.621094 -132.796875 L 11.621094 0 L 36.519531 0 L 36.519531 -33.035156 L 68.890625 -33.035156 C 103.914062 -33.035156 115.367188 -55.441406 115.367188 -83 C 115.367188 -110.554688 102.753906 -132.796875 68.890625 -132.796875 Z M 85.820312 -63.246094 C 83 -59.59375 77.355469 -57.933594 68.890625 -57.933594 L 36.519531 -57.933594 L 36.519531 -108.0625 L 68.890625 -108.0625 C 81.171875 -108.0625 84.492188 -103.914062 85.65625 -102.585938 C 88.808594 -98.601562 90.46875 -91.628906 90.46875 -83 C 90.46875 -73.867188 88.808594 -66.898438 85.820312 -63.246094 Z M 85.820312 -63.246094" transform="translate(123.917 179.25)"/></g></g></g><g fill="#FFDE59"><g><g><path d="M 89.96875 0 L 115.867188 0 L 76.855469 -132.464844 L 76.855469 -132.796875 L 50.796875 -132.796875 L 11.621094 0 L 37.679688 0 L 47.476562 -33.035156 L 80.175781 -33.035156 Z M 54.777344 -57.765625 L 63.910156 -88.644531 L 72.871094 -57.765625 Z M 54.777344 -57.765625" transform="translate(250.903 179.25)"/></g></g></g><g fill="#FF1616" fill-opacity=".4"><g><g><path d="M 108.894531 -37.015625 C 101.921875 -28.882812 91.628906 -23.902344 79.511719 -23.902344 C 56.105469 -23.902344 39.507812 -42.992188 39.507812 -66.398438 C 39.507812 -89.804688 56.105469 -108.894531 79.511719 -108.894531 C 91.628906 -108.894531 101.921875 -103.914062 108.894531 -95.78125 L 127.652344 -114.371094 C 115.367188 -126.65625 98.269531 -134.292969 79.511719 -134.292969 C 41.996094 -134.292969 11.621094 -103.914062 11.621094 -66.398438 C 11.621094 -28.882812 41.996094 1.492188 79.511719 1.492188 C 98.269531 1.492188 115.367188 -6.140625 127.652344 -18.425781 Z M 108.894531 -37.015625" transform="translate(61.543 335.836)"/></g></g></g><g fill="#FF1616" fill-opacity=".4"><g><g><path d="M 66.730469 1.660156 L 69.71875 1.660156 C 98.269531 1.492188 114.539062 -17.097656 115.699219 -35.523438 C 117.027344 -54.777344 102.421875 -76.359375 67.230469 -80.839844 L 66.898438 -80.839844 C 54.113281 -82.335938 40.835938 -88.644531 41.5 -97.9375 C 41.996094 -104.578125 51.957031 -110.71875 70.050781 -109.890625 L 70.550781 -109.890625 C 80.507812 -109.890625 92.460938 -105.078125 98.601562 -100.59375 L 112.878906 -120.515625 C 103.417969 -127.320312 86.816406 -134.292969 70.882812 -134.292969 C 35.691406 -136.117188 18.589844 -118.191406 17.097656 -99.929688 C 16.269531 -89.308594 20.75 -78.847656 29.382812 -70.882812 C 37.847656 -63.078125 49.964844 -58.097656 64.242188 -56.605469 C 83.664062 -53.949219 91.796875 -44.984375 91.296875 -37.183594 C 90.800781 -30.046875 83.164062 -22.90625 69.386719 -22.90625 L 68.558594 -22.90625 C 68.390625 -22.90625 50.296875 -21.910156 39.175781 -31.042969 C 36.351562 -33.199219 34.03125 -35.855469 31.871094 -39.007812 L 11.621094 -25.230469 C 14.941406 -20.25 19.089844 -15.769531 23.738281 -11.953125 C 38.84375 0.332031 58.761719 1.660156 66.730469 1.660156 Z M 66.730469 1.660156" transform="translate(200.814 335.836)"/></g></g></g><g fill="#FFDE59"><g><g><path d="M 108.894531 -37.015625 C 101.921875 -28.882812 91.628906 -23.902344 79.511719 -23.902344 C 56.105469 -23.902344 39.507812 -42.992188 39.507812 -66.398438 C 39.507812 -89.804688 56.105469 -108.894531 79.511719 -108.894531 C 91.628906 -108.894531 101.921875 -103.914062 108.894531 -95.78125 L 127.652344 -114.371094 C 115.367188 -126.65625 98.269531 -134.292969 79.511719 -134.292969 C 41.996094 -134.292969 11.621094 -103.914062 11.621094 -66.398438 C 11.621094 -28.882812 41.996094 1.492188 79.511719 1.492188 C 98.269531 1.492188 115.367188 -6.140625 127.652344 -18.425781 Z M 108.894531 -37.015625" transform="translate(54.207 328.5)"/></g></g></g><g fill="#FFDE59"><g><g><path d="M 66.730469 1.660156 L 69.71875 1.660156 C 98.269531 1.492188 114.539062 -17.097656 115.699219 -35.523438 C 117.027344 -54.777344 102.421875 -76.359375 67.230469 -80.839844 L 66.898438 -80.839844 C 54.113281 -82.335938 40.835938 -88.644531 41.5 -97.9375 C 41.996094 -104.578125 51.957031 -110.71875 70.050781 -109.890625 L 70.550781 -109.890625 C 80.507812 -109.890625 92.460938 -105.078125 98.601562 -100.59375 L 112.878906 -120.515625 C 103.417969 -127.320312 86.816406 -134.292969 70.882812 -134.292969 C 35.691406 -136.117188 18.589844 -118.191406 17.097656 -99.929688 C 16.269531 -89.308594 20.75 -78.847656 29.382812 -70.882812 C 37.847656 -63.078125 49.964844 -58.097656 64.242188 -56.605469 C 83.664062 -53.949219 91.796875 -44.984375 91.296875 -37.183594 C 90.800781 -30.046875 83.164062 -22.90625 69.386719 -22.90625 L 68.558594 -22.90625 C 68.390625 -22.90625 50.296875 -21.910156 39.175781 -31.042969 C 36.351562 -33.199219 34.03125 -35.855469 31.871094 -39.007812 L 11.621094 -25.230469 C 14.941406 -20.25 19.089844 -15.769531 23.738281 -11.953125 C 38.84375 0.332031 58.761719 1.660156 66.730469 1.660156 Z M 66.730469 1.660156" transform="translate(193.478 328.5)"/></g></g></g></svg>