<svg xmlns="http://www.w3.org/2000/svg" width="375" viewBox="0 0 375 375" height="375" version="1.0"><defs><clipPath id="a"><path d="M 202 200 L 252 200 L 252 238 L 202 238 Z M 202 200"/></clipPath><clipPath id="b"><path d="M 176.304688 198.855469 L 233.179688 163.917969 L 263.40625 213.128906 L 206.527344 248.066406 Z M 176.304688 198.855469"/></clipPath><clipPath id="c"><path d="M 176.304688 198.855469 L 233.179688 163.917969 L 263.40625 213.128906 L 206.527344 248.066406 Z M 176.304688 198.855469"/></clipPath><clipPath id="d"><path d="M 176.304688 198.855469 L 233.179688 163.917969 L 263.40625 213.128906 L 206.527344 248.066406 Z M 176.304688 198.855469"/></clipPath><clipPath id="e"><path d="M 201 197 L 251 197 L 251 236 L 201 236 Z M 201 197"/></clipPath><clipPath id="f"><path d="M 176.304688 198.855469 L 233.179688 163.917969 L 263.40625 213.128906 L 206.527344 248.066406 Z M 176.304688 198.855469"/></clipPath><clipPath id="g"><path d="M 176.304688 198.855469 L 233.179688 163.917969 L 263.40625 213.128906 L 206.527344 248.066406 Z M 176.304688 198.855469"/></clipPath><clipPath id="h"><path d="M 176.304688 198.855469 L 233.179688 163.917969 L 263.40625 213.128906 L 206.527344 248.066406 Z M 176.304688 198.855469"/></clipPath><clipPath id="i"><path d="M 187 178 L 248 178 L 248 227 L 187 227 Z M 187 178"/></clipPath><clipPath id="j"><path d="M 176.304688 198.855469 L 233.179688 163.917969 L 263.40625 213.128906 L 206.527344 248.066406 Z M 176.304688 198.855469"/></clipPath><clipPath id="k"><path d="M 176.304688 198.855469 L 233.179688 163.917969 L 263.40625 213.128906 L 206.527344 248.066406 Z M 176.304688 198.855469"/></clipPath><clipPath id="l"><path d="M 176.304688 198.855469 L 233.179688 163.917969 L 263.40625 213.128906 L 206.527344 248.066406 Z M 176.304688 198.855469"/></clipPath><clipPath id="m"><path d="M 193 189 L 247 189 L 247 224 L 193 224 Z M 193 189"/></clipPath><clipPath id="n"><path d="M 176.304688 198.855469 L 233.179688 163.917969 L 263.40625 213.128906 L 206.527344 248.066406 Z M 176.304688 198.855469"/></clipPath><clipPath id="o"><path d="M 176.304688 198.855469 L 233.179688 163.917969 L 263.40625 213.128906 L 206.527344 248.066406 Z M 176.304688 198.855469"/></clipPath><clipPath id="p"><path d="M 176.304688 198.855469 L 233.179688 163.917969 L 263.40625 213.128906 L 206.527344 248.066406 Z M 176.304688 198.855469"/></clipPath><clipPath id="q"><path d="M 203 185 L 223 185 L 223 205 L 203 205 Z M 203 185"/></clipPath><clipPath id="r"><path d="M 176.304688 198.855469 L 233.179688 163.917969 L 263.40625 213.128906 L 206.527344 248.066406 Z M 176.304688 198.855469"/></clipPath><clipPath id="s"><path d="M 176.304688 198.855469 L 233.179688 163.917969 L 263.40625 213.128906 L 206.527344 248.066406 Z M 176.304688 198.855469"/></clipPath><clipPath id="t"><path d="M 176.304688 198.855469 L 233.179688 163.917969 L 263.40625 213.128906 L 206.527344 248.066406 Z M 176.304688 198.855469"/></clipPath><clipPath id="u"><path d="M 208 185 L 223 185 L 223 204 L 208 204 Z M 208 185"/></clipPath><clipPath id="v"><path d="M 176.304688 198.855469 L 233.179688 163.917969 L 263.40625 213.128906 L 206.527344 248.066406 Z M 176.304688 198.855469"/></clipPath><clipPath id="w"><path d="M 176.304688 198.855469 L 233.179688 163.917969 L 263.40625 213.128906 L 206.527344 248.066406 Z M 176.304688 198.855469"/></clipPath><clipPath id="x"><path d="M 176.304688 198.855469 L 233.179688 163.917969 L 263.40625 213.128906 L 206.527344 248.066406 Z M 176.304688 198.855469"/></clipPath></defs><g fill="#FF1616" fill-opacity=".4"><g><g><path d="M 72.359375 1.800781 L 75.601562 1.800781 C 106.558594 1.621094 124.199219 -18.539062 125.460938 -38.519531 C 126.898438 -59.398438 111.058594 -82.800781 72.898438 -87.660156 L 72.539062 -87.660156 C 58.679688 -89.28125 44.28125 -96.121094 45 -106.199219 C 45.539062 -113.398438 56.339844 -120.058594 75.960938 -119.160156 L 76.5 -119.160156 C 87.300781 -119.160156 100.261719 -113.941406 106.921875 -109.078125 L 122.398438 -130.679688 C 112.140625 -138.058594 94.140625 -145.621094 76.859375 -145.621094 C 38.699219 -147.601562 20.160156 -128.160156 18.539062 -108.359375 C 17.640625 -96.839844 22.5 -85.5 31.859375 -76.859375 C 41.039062 -68.398438 54.179688 -63 69.660156 -61.378906 C 90.71875 -58.5 99.539062 -48.78125 99 -40.320312 C 98.460938 -32.578125 90.179688 -24.839844 75.238281 -24.839844 L 74.339844 -24.839844 C 74.160156 -24.839844 54.539062 -23.761719 42.480469 -33.660156 C 39.421875 -36 36.898438 -38.878906 34.558594 -42.300781 L 12.601562 -27.359375 C 16.199219 -21.960938 20.699219 -17.101562 25.738281 -12.960938 C 42.121094 0.359375 63.71875 1.800781 72.359375 1.800781 Z M 72.359375 1.800781" transform="translate(-1.62 195.68)"/></g></g></g><g fill="#FF1616" fill-opacity=".4"><g><g><path d="M 74.699219 -144 L 12.601562 -144 L 12.601562 0 L 39.601562 0 L 39.601562 -35.820312 L 74.699219 -35.820312 C 112.679688 -35.820312 125.101562 -60.121094 125.101562 -90 C 125.101562 -119.878906 111.421875 -144 74.699219 -144 Z M 93.058594 -68.578125 C 90 -64.621094 83.878906 -62.820312 74.699219 -62.820312 L 39.601562 -62.820312 L 39.601562 -117.179688 L 74.699219 -117.179688 C 88.019531 -117.179688 91.621094 -112.679688 92.878906 -111.238281 C 96.300781 -106.921875 98.101562 -99.359375 98.101562 -90 C 98.101562 -80.101562 96.300781 -72.539062 93.058594 -68.578125 Z M 93.058594 -68.578125" transform="translate(122.76 195.68)"/></g></g></g><g fill="#FF1616" fill-opacity=".4"><g><g><path d="M 97.558594 0 L 125.640625 0 L 83.339844 -143.640625 L 83.339844 -144 L 55.078125 -144 L 12.601562 0 L 40.859375 0 L 51.480469 -35.820312 L 86.941406 -35.820312 Z M 59.398438 -62.640625 L 69.300781 -96.121094 L 79.019531 -62.640625 Z M 59.398438 -62.640625" transform="translate(246.78 195.68)"/></g></g></g><g fill="#FFDE59"><g><g><path d="M 72.359375 1.800781 L 75.601562 1.800781 C 106.558594 1.621094 124.199219 -18.539062 125.460938 -38.519531 C 126.898438 -59.398438 111.058594 -82.800781 72.898438 -87.660156 L 72.539062 -87.660156 C 58.679688 -89.28125 44.28125 -96.121094 45 -106.199219 C 45.539062 -113.398438 56.339844 -120.058594 75.960938 -119.160156 L 76.5 -119.160156 C 87.300781 -119.160156 100.261719 -113.941406 106.921875 -109.078125 L 122.398438 -130.679688 C 112.140625 -138.058594 94.140625 -145.621094 76.859375 -145.621094 C 38.699219 -147.601562 20.160156 -128.160156 18.539062 -108.359375 C 17.640625 -96.839844 22.5 -85.5 31.859375 -76.859375 C 41.039062 -68.398438 54.179688 -63 69.660156 -61.378906 C 90.71875 -58.5 99.539062 -48.78125 99 -40.320312 C 98.460938 -32.578125 90.179688 -24.839844 75.238281 -24.839844 L 74.339844 -24.839844 C 74.160156 -24.839844 54.539062 -23.761719 42.480469 -33.660156 C 39.421875 -36 36.898438 -38.878906 34.558594 -42.300781 L 12.601562 -27.359375 C 16.199219 -21.960938 20.699219 -17.101562 25.738281 -12.960938 C 42.121094 0.359375 63.71875 1.800781 72.359375 1.800781 Z M 72.359375 1.800781" transform="translate(-9.574 187.725)"/></g></g></g><g fill="#FFDE59"><g><g><path d="M 74.699219 -144 L 12.601562 -144 L 12.601562 0 L 39.601562 0 L 39.601562 -35.820312 L 74.699219 -35.820312 C 112.679688 -35.820312 125.101562 -60.121094 125.101562 -90 C 125.101562 -119.878906 111.421875 -144 74.699219 -144 Z M 93.058594 -68.578125 C 90 -64.621094 83.878906 -62.820312 74.699219 -62.820312 L 39.601562 -62.820312 L 39.601562 -117.179688 L 74.699219 -117.179688 C 88.019531 -117.179688 91.621094 -112.679688 92.878906 -111.238281 C 96.300781 -106.921875 98.101562 -99.359375 98.101562 -90 C 98.101562 -80.101562 96.300781 -72.539062 93.058594 -68.578125 Z M 93.058594 -68.578125" transform="translate(114.806 187.725)"/></g></g></g><g fill="#FFDE59"><g><g><path d="M 97.558594 0 L 125.640625 0 L 83.339844 -143.640625 L 83.339844 -144 L 55.078125 -144 L 12.601562 0 L 40.859375 0 L 51.480469 -35.820312 L 86.941406 -35.820312 Z M 59.398438 -62.640625 L 69.300781 -96.121094 L 79.019531 -62.640625 Z M 59.398438 -62.640625" transform="translate(238.826 187.725)"/></g></g></g><g fill="#FF1616" fill-opacity=".4"><g><g><path d="M 108.894531 -37.015625 C 101.921875 -28.882812 91.628906 -23.902344 79.511719 -23.902344 C 56.105469 -23.902344 39.507812 -42.992188 39.507812 -66.398438 C 39.507812 -89.804688 56.105469 -108.894531 79.511719 -108.894531 C 91.628906 -108.894531 101.921875 -103.914062 108.894531 -95.78125 L 127.652344 -114.371094 C 115.367188 -126.65625 98.269531 -134.292969 79.511719 -134.292969 C 41.996094 -134.292969 11.621094 -103.914062 11.621094 -66.398438 C 11.621094 -28.882812 41.996094 1.492188 79.511719 1.492188 C 98.269531 1.492188 115.367188 -6.140625 127.652344 -18.425781 Z M 108.894531 -37.015625" transform="translate(51.572 341.93)"/></g></g></g><g fill="#FF1616" fill-opacity=".4"><g><g><path d="M 66.730469 1.660156 L 69.71875 1.660156 C 98.269531 1.492188 114.539062 -17.097656 115.699219 -35.523438 C 117.027344 -54.777344 102.421875 -76.359375 67.230469 -80.839844 L 66.898438 -80.839844 C 54.113281 -82.335938 40.835938 -88.644531 41.5 -97.9375 C 41.996094 -104.578125 51.957031 -110.71875 70.050781 -109.890625 L 70.550781 -109.890625 C 80.507812 -109.890625 92.460938 -105.078125 98.601562 -100.59375 L 112.878906 -120.515625 C 103.417969 -127.320312 86.816406 -134.292969 70.882812 -134.292969 C 35.691406 -136.117188 18.589844 -118.191406 17.097656 -99.929688 C 16.269531 -89.308594 20.75 -78.847656 29.382812 -70.882812 C 37.847656 -63.078125 49.964844 -58.097656 64.242188 -56.605469 C 83.664062 -53.949219 91.796875 -44.984375 91.296875 -37.183594 C 90.800781 -30.046875 83.164062 -22.90625 69.386719 -22.90625 L 68.558594 -22.90625 C 68.390625 -22.90625 50.296875 -21.910156 39.175781 -31.042969 C 36.351562 -33.199219 34.03125 -35.855469 31.871094 -39.007812 L 11.621094 -25.230469 C 14.941406 -20.25 19.089844 -15.769531 23.738281 -11.953125 C 38.84375 0.332031 58.761719 1.660156 66.730469 1.660156 Z M 66.730469 1.660156" transform="translate(190.843 341.93)"/></g></g></g><g fill="#FFDE59"><g><g><path d="M 108.894531 -37.015625 C 101.921875 -28.882812 91.628906 -23.902344 79.511719 -23.902344 C 56.105469 -23.902344 39.507812 -42.992188 39.507812 -66.398438 C 39.507812 -89.804688 56.105469 -108.894531 79.511719 -108.894531 C 91.628906 -108.894531 101.921875 -103.914062 108.894531 -95.78125 L 127.652344 -114.371094 C 115.367188 -126.65625 98.269531 -134.292969 79.511719 -134.292969 C 41.996094 -134.292969 11.621094 -103.914062 11.621094 -66.398438 C 11.621094 -28.882812 41.996094 1.492188 79.511719 1.492188 C 98.269531 1.492188 115.367188 -6.140625 127.652344 -18.425781 Z M 108.894531 -37.015625" transform="translate(43.617 333.975)"/></g></g></g><g fill="#FFDE59"><g><g><path d="M 66.730469 1.660156 L 69.71875 1.660156 C 98.269531 1.492188 114.539062 -17.097656 115.699219 -35.523438 C 117.027344 -54.777344 102.421875 -76.359375 67.230469 -80.839844 L 66.898438 -80.839844 C 54.113281 -82.335938 40.835938 -88.644531 41.5 -97.9375 C 41.996094 -104.578125 51.957031 -110.71875 70.050781 -109.890625 L 70.550781 -109.890625 C 80.507812 -109.890625 92.460938 -105.078125 98.601562 -100.59375 L 112.878906 -120.515625 C 103.417969 -127.320312 86.816406 -134.292969 70.882812 -134.292969 C 35.691406 -136.117188 18.589844 -118.191406 17.097656 -99.929688 C 16.269531 -89.308594 20.75 -78.847656 29.382812 -70.882812 C 37.847656 -63.078125 49.964844 -58.097656 64.242188 -56.605469 C 83.664062 -53.949219 91.796875 -44.984375 91.296875 -37.183594 C 90.800781 -30.046875 83.164062 -22.90625 69.386719 -22.90625 L 68.558594 -22.90625 C 68.390625 -22.90625 50.296875 -21.910156 39.175781 -31.042969 C 36.351562 -33.199219 34.03125 -35.855469 31.871094 -39.007812 L 11.621094 -25.230469 C 14.941406 -20.25 19.089844 -15.769531 23.738281 -11.953125 C 38.84375 0.332031 58.761719 1.660156 66.730469 1.660156 Z M 66.730469 1.660156" transform="translate(182.888 333.975)"/></g></g></g><g clip-path="url(#a)"><g clip-path="url(#b)"><g clip-path="url(#c)"><g clip-path="url(#d)"><path fill="#F8B858" d="M 250.304688 204.789062 C 250.542969 205.179688 250.746094 205.589844 250.910156 206.023438 C 251.074219 206.457031 251.199219 206.910156 251.285156 207.382812 C 251.371094 207.855469 251.421875 208.347656 251.429688 208.855469 C 251.4375 209.363281 251.40625 209.886719 251.339844 210.425781 C 251.269531 210.964844 251.160156 211.515625 251.015625 212.078125 C 250.867188 212.640625 250.683594 213.214844 250.460938 213.796875 C 250.238281 214.378906 249.980469 214.96875 249.683594 215.566406 C 249.386719 216.164062 249.054688 216.765625 248.6875 217.371094 C 248.320312 217.972656 247.921875 218.582031 247.488281 219.1875 C 247.050781 219.796875 246.585938 220.402344 246.089844 221.003906 C 245.589844 221.609375 245.0625 222.207031 244.507812 222.804688 C 243.949219 223.398438 243.367188 223.984375 242.757812 224.5625 C 242.148438 225.144531 241.515625 225.714844 240.859375 226.273438 C 240.203125 226.832031 239.527344 227.378906 238.832031 227.910156 C 238.132812 228.441406 237.417969 228.960938 236.6875 229.460938 C 235.957031 229.964844 235.210938 230.449219 234.453125 230.914062 C 233.695312 231.378906 232.925781 231.824219 232.148438 232.25 C 231.367188 232.675781 230.582031 233.078125 229.792969 233.460938 C 229.003906 233.84375 228.210938 234.199219 227.414062 234.53125 C 226.617188 234.863281 225.824219 235.171875 225.03125 235.453125 C 224.238281 235.734375 223.453125 235.988281 222.671875 236.214844 C 221.890625 236.441406 221.117188 236.640625 220.351562 236.8125 C 219.589844 236.984375 218.839844 237.125 218.101562 237.238281 C 217.363281 237.351562 216.640625 237.433594 215.933594 237.488281 C 215.230469 237.542969 214.542969 237.566406 213.875 237.5625 C 213.210938 237.554688 212.566406 237.519531 211.945312 237.453125 C 211.324219 237.390625 210.730469 237.296875 210.164062 237.171875 C 209.59375 237.046875 209.054688 236.894531 208.542969 236.710938 C 208.03125 236.53125 207.550781 236.320312 207.101562 236.082031 C 206.652344 235.847656 206.234375 235.582031 205.855469 235.289062 C 205.472656 235 205.125 234.683594 204.8125 234.339844 C 204.496094 233.996094 204.222656 233.632812 203.984375 233.242188 C 203.742188 232.851562 203.542969 232.441406 203.378906 232.007812 C 203.214844 231.574219 203.089844 231.121094 203 230.648438 C 202.914062 230.175781 202.867188 229.683594 202.859375 229.175781 C 202.847656 228.667969 202.878906 228.144531 202.949219 227.605469 C 203.019531 227.066406 203.125 226.515625 203.273438 225.953125 C 203.417969 225.390625 203.601562 224.816406 203.824219 224.234375 C 204.046875 223.652344 204.308594 223.0625 204.601562 222.464844 C 204.898438 221.867188 205.230469 221.265625 205.597656 220.660156 C 205.964844 220.058594 206.367188 219.449219 206.800781 218.84375 C 207.234375 218.234375 207.703125 217.628906 208.199219 217.027344 C 208.695312 216.421875 209.222656 215.824219 209.78125 215.226562 C 210.335938 214.632812 210.917969 214.046875 211.527344 213.46875 C 212.136719 212.886719 212.769531 212.316406 213.425781 211.757812 C 214.082031 211.199219 214.757812 210.652344 215.457031 210.121094 C 216.15625 209.589844 216.867188 209.070312 217.601562 208.570312 C 218.332031 208.066406 219.078125 207.582031 219.835938 207.117188 C 220.59375 206.652344 221.363281 206.207031 222.140625 205.78125 C 222.917969 205.355469 223.703125 204.953125 224.492188 204.570312 C 225.285156 204.1875 226.078125 203.832031 226.875 203.5 C 227.667969 203.167969 228.460938 202.859375 229.253906 202.578125 C 230.046875 202.296875 230.835938 202.042969 231.617188 201.816406 C 232.398438 201.589844 233.171875 201.390625 233.933594 201.21875 C 234.699219 201.046875 235.449219 200.90625 236.1875 200.792969 C 236.925781 200.679688 237.648438 200.597656 238.351562 200.542969 C 239.058594 200.488281 239.746094 200.464844 240.410156 200.46875 C 241.078125 200.476562 241.71875 200.511719 242.339844 200.578125 C 242.960938 200.640625 243.554688 200.734375 244.125 200.859375 C 244.691406 200.984375 245.234375 201.136719 245.746094 201.320312 C 246.257812 201.5 246.738281 201.710938 247.1875 201.949219 C 247.636719 202.183594 248.050781 202.449219 248.433594 202.742188 C 248.816406 203.03125 249.164062 203.347656 249.476562 203.691406 C 249.789062 204.035156 250.066406 204.398438 250.304688 204.789062 Z M 250.304688 204.789062"/></g></g></g></g><g clip-path="url(#e)"><g clip-path="url(#f)"><g clip-path="url(#g)"><g clip-path="url(#h)"><path fill="#00262B" d="M 248.867188 202.449219 C 249.117188 202.855469 249.328125 203.285156 249.503906 203.734375 C 249.675781 204.183594 249.8125 204.652344 249.90625 205.140625 C 250.003906 205.628906 250.0625 206.136719 250.078125 206.660156 C 250.097656 207.183594 250.078125 207.722656 250.015625 208.273438 C 249.957031 208.828125 249.859375 209.394531 249.722656 209.972656 C 249.582031 210.546875 249.40625 211.136719 249.191406 211.730469 C 248.980469 212.328125 248.726562 212.929688 248.4375 213.539062 C 248.148438 214.148438 247.824219 214.761719 247.464844 215.378906 C 247.105469 215.996094 246.710938 216.613281 246.28125 217.230469 C 245.855469 217.847656 245.394531 218.460938 244.902344 219.074219 C 244.410156 219.6875 243.886719 220.296875 243.335938 220.898438 C 242.785156 221.5 242.207031 222.09375 241.601562 222.679688 C 240.996094 223.265625 240.367188 223.839844 239.714844 224.402344 C 239.058594 224.96875 238.386719 225.515625 237.691406 226.054688 C 236.996094 226.589844 236.28125 227.109375 235.550781 227.613281 C 234.820312 228.117188 234.074219 228.601562 233.316406 229.066406 C 232.558594 229.53125 231.789062 229.976562 231.011719 230.402344 C 230.230469 230.824219 229.445312 231.226562 228.652344 231.605469 C 227.859375 231.980469 227.066406 232.335938 226.265625 232.664062 C 225.46875 232.992188 224.671875 233.292969 223.875 233.566406 C 223.078125 233.84375 222.289062 234.089844 221.5 234.308594 C 220.714844 234.53125 219.9375 234.71875 219.167969 234.882812 C 218.398438 235.042969 217.640625 235.175781 216.898438 235.28125 C 216.152344 235.382812 215.421875 235.453125 214.710938 235.496094 C 214 235.539062 213.304688 235.550781 212.632812 235.535156 C 211.957031 235.515625 211.304688 235.46875 210.675781 235.390625 C 210.050781 235.3125 209.445312 235.203125 208.867188 235.0625 C 208.292969 234.925781 207.742188 234.757812 207.222656 234.5625 C 206.699219 234.367188 206.210938 234.140625 205.753906 233.886719 C 205.292969 233.632812 204.867188 233.355469 204.476562 233.046875 C 204.082031 232.742188 203.726562 232.40625 203.402344 232.050781 C 203.082031 231.691406 202.796875 231.308594 202.546875 230.902344 C 202.296875 230.496094 202.085938 230.070312 201.910156 229.621094 C 201.738281 229.171875 201.601562 228.703125 201.507812 228.214844 C 201.410156 227.722656 201.351562 227.21875 201.335938 226.695312 C 201.316406 226.171875 201.335938 225.632812 201.398438 225.078125 C 201.457031 224.527344 201.554688 223.960938 201.695312 223.382812 C 201.832031 222.804688 202.007812 222.21875 202.222656 221.621094 C 202.4375 221.027344 202.6875 220.425781 202.976562 219.816406 C 203.265625 219.207031 203.589844 218.59375 203.949219 217.976562 C 204.308594 217.359375 204.703125 216.742188 205.132812 216.125 C 205.558594 215.507812 206.019531 214.890625 206.511719 214.28125 C 207.003906 213.667969 207.527344 213.058594 208.078125 212.457031 C 208.628906 211.855469 209.207031 211.261719 209.8125 210.675781 C 210.417969 210.089844 211.046875 209.515625 211.703125 208.949219 C 212.355469 208.386719 213.03125 207.835938 213.726562 207.300781 C 214.421875 206.765625 215.132812 206.246094 215.863281 205.742188 C 216.59375 205.238281 217.339844 204.753906 218.097656 204.289062 C 218.855469 203.820312 219.625 203.378906 220.402344 202.953125 C 221.183594 202.527344 221.96875 202.128906 222.761719 201.75 C 223.554688 201.371094 224.351562 201.019531 225.148438 200.691406 C 225.945312 200.363281 226.742188 200.0625 227.539062 199.785156 C 228.335938 199.511719 229.128906 199.265625 229.914062 199.042969 C 230.699219 198.824219 231.476562 198.632812 232.246094 198.472656 C 233.015625 198.308594 233.773438 198.175781 234.519531 198.074219 C 235.261719 197.972656 235.992188 197.898438 236.703125 197.855469 C 237.414062 197.8125 238.109375 197.800781 238.78125 197.820312 C 239.457031 197.839844 240.109375 197.886719 240.738281 197.964844 C 241.367188 198.042969 241.96875 198.152344 242.546875 198.289062 C 243.125 198.429688 243.671875 198.597656 244.191406 198.792969 C 244.714844 198.988281 245.203125 199.214844 245.660156 199.46875 C 246.121094 199.71875 246.546875 200 246.9375 200.308594 C 247.332031 200.613281 247.6875 200.945312 248.011719 201.304688 C 248.332031 201.664062 248.617188 202.046875 248.867188 202.449219 Z M 248.867188 202.449219"/></g></g></g></g><g clip-path="url(#i)"><g clip-path="url(#j)"><g clip-path="url(#k)"><g clip-path="url(#l)"><path fill="#002E35" d="M 243.9375 189.265625 L 243.933594 189.28125 C 244.96875 190.414062 245.925781 191.644531 246.773438 192.984375 C 246.839844 193.085938 246.902344 193.1875 246.964844 193.292969 C 247.234375 193.730469 247.628906 194.179688 247.710938 194.703125 C 248.183594 197.746094 245.851562 200.652344 243.691406 202.5 C 242.875 203.199219 242.015625 203.859375 241.210938 204.570312 C 238.425781 207.019531 235.300781 209.207031 232.226562 211.277344 C 230.195312 212.644531 228.128906 213.972656 226.042969 215.253906 L 225.644531 215.496094 C 221.976562 217.75 218.21875 219.949219 214.339844 221.828125 C 211.398438 223.253906 208.453125 224.476562 205.410156 225.65625 C 203.902344 226.238281 202.28125 226.445312 200.679688 226.238281 C 199.09375 226.035156 197.46875 225.648438 196.597656 224.230469 C 196.492188 224.0625 196.390625 223.890625 196.292969 223.722656 C 195.535156 222.425781 194.902344 221.082031 194.390625 219.710938 C 194.390625 219.710938 193.851562 219.582031 193.847656 219.585938 L 188.863281 219.167969 L 187.3125 210.054688 C 187.3125 210.054688 191.738281 205.875 193.28125 203.394531 C 194.976562 200.671875 196.390625 197.753906 197.976562 194.964844 C 198.820312 193.484375 199.648438 191.984375 200.308594 190.414062 C 200.898438 189.011719 201.117188 187.488281 201.71875 186.09375 C 203.257812 182.542969 206.691406 180.175781 210.59375 180.578125 C 211.835938 180.707031 213.035156 181.105469 214.269531 181.246094 C 216.246094 181.46875 218.25 181.386719 220.238281 181.292969 C 223.441406 181.136719 226.683594 181.195312 229.878906 180.914062 C 232.789062 180.660156 238.519531 178.601562 238.519531 178.601562 L 246.5625 185.789062 Z M 243.9375 189.265625"/></g></g></g></g><g clip-path="url(#m)"><g clip-path="url(#n)"><g clip-path="url(#o)"><g clip-path="url(#p)"><path fill="#F8B858" d="M 246.773438 192.984375 C 238.839844 201.089844 230.757812 207.183594 223.335938 211.746094 C 211.660156 218.914062 201.605469 222.289062 196.292969 223.722656 C 195.535156 222.425781 194.902344 221.082031 194.390625 219.710938 L 193.851562 219.582031 C 201.140625 217.78125 223.050781 210.851562 243.9375 189.265625 L 243.933594 189.28125 C 244.96875 190.414062 245.925781 191.644531 246.773438 192.984375 Z M 246.773438 192.984375"/></g></g></g></g><g clip-path="url(#q)"><g clip-path="url(#r)"><g clip-path="url(#s)"><g clip-path="url(#t)"><path fill="#F8B858" d="M 217.175781 185.664062 L 221.742188 193.09375 C 224.347656 197.796875 218.53125 203.472656 218.53125 203.472656 C 218.53125 203.472656 215.621094 204.460938 212.679688 204.1875 C 212.574219 204.183594 212.472656 204.167969 212.367188 204.15625 C 210.632812 203.941406 208.921875 203.257812 207.828125 201.640625 L 203.261719 194.207031 C 203.261719 194.207031 205.875 193.132812 207.148438 191.574219 C 208.859375 189.476562 208.757812 187.558594 208.757812 187.558594 C 208.757812 187.558594 210.421875 188.515625 213.070312 187.9375 C 213.445312 187.851562 213.828125 187.71875 214.203125 187.5625 C 215.777344 186.871094 217.175781 185.664062 217.175781 185.664062 Z M 217.175781 185.664062"/></g></g></g></g><g clip-path="url(#u)"><g clip-path="url(#v)"><g clip-path="url(#w)"><g clip-path="url(#x)"><path fill="#FBCA6F" d="M 217.175781 185.664062 L 221.742188 193.09375 C 224.347656 197.796875 218.53125 203.472656 218.53125 203.472656 L 208.757812 187.558594 C 208.757812 187.558594 210.421875 188.515625 213.070312 187.9375 C 213.445312 187.851562 213.828125 187.71875 214.203125 187.5625 C 215.777344 186.871094 217.175781 185.664062 217.175781 185.664062 Z M 217.175781 185.664062"/></g></g></g></g></svg>